<?xml version="1.0" standalone="no"?>
<!DOCTYPE svg PUBLIC "-//W3C//DTD SVG 20010904//EN"
 "http://www.w3.org/TR/2001/REC-SVG-20010904/DTD/svg10.dtd">
<svg version="1.0" xmlns="http://www.w3.org/2000/svg"
 width="2500.000000pt" height="2500.000000pt" viewBox="0 0 2500.000000 2500.000000"
 preserveAspectRatio="xMidYMid meet">
<metadata>
Created by potrace 1.16, written by Peter Selinger 2001-2019
</metadata>
<g transform="translate(0.000000,2500.000000) scale(0.100000,-0.100000)"
fill="#000000" stroke="none">
<path d="M10040 21680 c-170 -10 -250 -29 -426 -98 -155 -61 -287 -147 -407
-266 -234 -232 -346 -515 -347 -882 0 -117 4 -147 35 -275 42 -173 107 -328
189 -458 80 -126 80 -125 161 -216 147 -164 346 -308 585 -425 343 -167 759
-257 1382 -296 l106 -7 117 121 c186 193 246 221 490 229 181 6 634 -29 883
-68 107 -16 243 -66 336 -121 100 -60 232 -178 291 -262 22 -31 49 -58 60 -61
11 -2 207 -18 435 -35 521 -38 803 -59 950 -70 146 -11 194 -1 252 50 56 49
90 113 124 228 23 82 26 106 22 215 -3 114 -5 126 -36 189 -35 70 -82 116
-144 142 -18 8 -114 21 -213 30 -200 18 -811 69 -1090 92 -99 7 -229 18 -290
24 -60 5 -193 16 -295 25 -102 8 -234 19 -295 25 -60 6 -198 17 -305 26 -314
26 -370 31 -374 35 -3 4 -15 36 -77 214 -27 78 -118 317 -133 350 -8 17 -29
66 -46 110 -81 206 -246 499 -361 643 -125 158 -248 291 -319 347 -14 11 -50
41 -80 66 -121 102 -405 259 -520 289 -25 6 -65 18 -90 27 -25 8 -61 19 -80
24 -57 14 -303 49 -335 47 -16 -1 -86 -4 -155 -8z m360 -52 c187 -23 481 -133
574 -213 16 -14 32 -25 36 -25 7 0 62 -40 101 -72 107 -89 312 -322 360 -408
11 -19 35 -60 54 -90 19 -30 43 -73 54 -95 60 -125 115 -243 122 -265 4 -14
23 -62 42 -108 20 -46 39 -96 42 -112 4 -17 11 -32 16 -35 5 -4 9 -13 9 -22 0
-8 6 -29 14 -46 18 -41 63 -183 71 -224 4 -18 11 -35 16 -38 5 -4 9 -17 9 -31
0 -13 4 -32 10 -42 10 -18 40 -139 40 -161 0 -7 6 -27 13 -44 26 -60 46 -132
57 -197 12 -79 12 -80 2 -80 -5 0 -14 18 -21 40 -6 22 -18 40 -25 40 -13 0
-25 30 -32 79 -1 14 -11 32 -21 40 -10 9 -25 24 -32 34 -12 15 -12 17 5 10 16
-6 16 -4 -4 21 -12 16 -22 35 -22 42 0 8 -4 14 -9 14 -5 0 -11 9 -14 21 -3 11
-15 23 -26 26 -20 5 -25 14 -22 39 1 6 -12 23 -29 37 -16 15 -30 31 -30 37 0
5 -11 21 -24 36 -51 56 -56 65 -56 89 0 13 -6 28 -13 32 -8 4 -22 31 -33 58
-10 28 -26 64 -35 80 -9 17 -25 55 -35 85 -10 30 -24 62 -31 71 -7 8 -13 24
-13 33 0 10 -13 46 -29 80 -15 33 -46 106 -67 161 -21 55 -44 107 -51 116 -7
8 -13 19 -13 22 0 15 -94 205 -126 255 -19 29 -34 56 -34 61 0 5 -11 18 -25
29 -14 11 -25 24 -25 29 0 9 -88 119 -132 163 -27 28 -92 80 -117 94 -9 5 -18
12 -21 16 -25 31 -199 120 -285 145 -128 37 -174 45 -298 52 -124 6 -273 -10
-342 -37 -11 -4 -43 -17 -72 -29 -28 -12 -56 -21 -61 -21 -21 0 -199 -117
-240 -157 -24 -24 -46 -43 -50 -43 -4 -1 -20 -19 -37 -41 -16 -23 -40 -52 -53
-66 -13 -14 -35 -44 -50 -66 -37 -57 -47 -67 -81 -77 -27 -8 -28 -6 -40 42
-19 86 -14 123 35 224 30 61 133 163 225 220 257 162 527 216 869 172z m-154
-789 c333 -60 584 -269 772 -644 54 -108 127 -282 196 -467 l25 -68 -25 0
c-63 0 -482 43 -593 61 -495 79 -761 242 -899 549 -42 94 -56 161 -49 249 9
135 59 212 172 270 108 56 263 75 401 50z"/>
<path d="M9759 18345 c-3 -2 -95 -5 -204 -6 -318 -2 -735 -48 -995 -109 -25
-6 -67 -15 -95 -21 -27 -5 -59 -14 -70 -18 -11 -5 -38 -14 -60 -19 -22 -6 -65
-19 -95 -30 -30 -11 -85 -29 -121 -40 -37 -12 -83 -30 -103 -42 -20 -11 -43
-20 -51 -20 -8 0 -15 -4 -15 -10 0 -5 -11 -12 -25 -16 -14 -3 -42 -15 -62 -25
-21 -10 -45 -19 -55 -19 -10 0 -18 -4 -18 -8 0 -5 -10 -14 -22 -21 -13 -6 -35
-19 -50 -29 -47 -30 -172 -106 -198 -120 -14 -7 -35 -24 -47 -36 -12 -13 -37
-33 -55 -44 -19 -12 -40 -32 -47 -46 -8 -13 -24 -27 -36 -30 -24 -6 -186 -163
-265 -256 -25 -29 -57 -68 -72 -85 -16 -18 -28 -37 -28 -43 0 -6 -3 -12 -7
-14 -11 -4 -64 -75 -91 -120 -13 -20 -27 -38 -31 -40 -12 -4 -61 -104 -61
-123 0 -8 -5 -15 -11 -15 -5 0 -15 -13 -20 -30 -6 -16 -15 -30 -20 -30 -5 0
-9 -9 -9 -20 0 -11 -4 -20 -10 -20 -5 0 -10 -9 -10 -19 0 -11 -5 -23 -10 -26
-6 -4 -19 -25 -29 -48 -50 -115 -94 -225 -98 -249 -3 -15 -9 -25 -14 -22 -5 3
-9 -4 -9 -15 0 -11 -4 -22 -9 -25 -4 -3 -14 -39 -20 -81 -7 -41 -17 -75 -22
-75 -5 0 -9 -18 -9 -40 0 -22 -4 -40 -10 -40 -5 0 -10 -9 -10 -20 0 -10 -6
-44 -14 -74 -8 -30 -12 -63 -9 -74 2 -11 0 -23 -6 -26 -6 -4 -11 -31 -11 -61
0 -30 -4 -56 -9 -59 -4 -3 -12 -43 -17 -88 -14 -139 -17 -36 -4 153 6 96 18
207 26 245 8 38 23 112 34 164 11 52 45 169 75 260 148 441 419 834 773 1119
57 46 101 85 99 88 -3 2 -13 -2 -24 -11 -253 -209 -290 -243 -432 -401 -20
-22 -77 -85 -127 -140 -50 -55 -141 -161 -204 -235 -63 -74 -116 -137 -119
-140 -6 -5 -30 -35 -136 -165 -27 -34 -97 -118 -155 -186 -57 -68 -112 -133
-121 -144 -10 -11 -45 -54 -79 -95 -34 -41 -69 -84 -78 -95 -234 -281 -269
-328 -452 -600 -78 -116 -196 -360 -260 -540 -133 -372 -189 -727 -176 -1115
7 -214 34 -399 102 -695 36 -158 36 -162 30 -320 -3 -88 -10 -178 -16 -200 -5
-22 -16 -84 -25 -139 -25 -167 -61 -302 -192 -731 -53 -175 -260 -795 -281
-845 -6 -14 -37 -97 -68 -185 -62 -176 -391 -1053 -504 -1345 -171 -440 -377
-988 -465 -1234 -23 -66 -100 -281 -170 -476 -303 -851 -345 -984 -424 -1340
-58 -264 -87 -711 -62 -976 19 -205 40 -377 51 -419 5 -22 23 -102 40 -177 28
-129 52 -197 170 -483 37 -88 86 -173 179 -308 14 -21 35 -54 46 -72 19 -33
112 -136 247 -275 35 -36 135 -121 223 -190 88 -68 162 -127 165 -131 3 -3 23
-16 45 -28 22 -11 94 -55 160 -97 118 -75 144 -90 380 -215 215 -114 675 -314
851 -370 38 -12 121 -39 184 -59 291 -96 610 -146 855 -135 454 20 977 190
1585 513 147 78 445 261 570 349 58 41 148 104 200 141 52 37 133 96 179 132
100 77 147 114 222 172 31 24 83 66 115 94 32 28 118 102 189 164 258 223 611
585 836 854 13 16 29 34 35 40 8 9 110 136 157 196 114 146 246 333 374 533
97 150 114 180 342 582 57 99 109 187 117 195 13 13 16 13 24 0 5 -8 10 -23
10 -33 0 -34 20 -57 49 -57 30 0 65 -13 166 -60 356 -166 810 -216 1174 -128
141 34 320 112 446 193 64 42 555 411 779 585 60 47 159 123 220 170 100 76
328 252 457 353 l48 37 255 7 255 6 183 -186 c227 -230 332 -326 473 -431 231
-173 438 -281 680 -354 149 -45 245 -62 396 -69 255 -11 489 39 706 151 46 24
83 40 83 36 0 -33 53 -474 65 -545 66 -376 297 -1064 447 -1334 101 -180 200
-296 402 -469 87 -74 287 -192 416 -246 368 -152 798 -150 1135 4 122 56 307
177 460 302 114 93 154 126 180 149 220 192 466 437 596 594 46 55 86 102 89
105 12 11 121 151 176 225 152 206 323 515 399 720 80 215 176 531 199 653 9
46 22 109 30 140 55 214 106 767 106 1145 0 352 -45 791 -126 1237 -14 74 -34
182 -44 240 -11 58 -29 150 -41 205 -11 55 -27 127 -34 160 -49 234 -154 680
-191 810 -8 28 -32 115 -55 195 -45 162 -79 279 -114 390 -14 41 -49 156 -80
255 -31 99 -63 198 -70 220 -8 22 -44 135 -80 250 -36 116 -79 251 -95 300
-47 143 -187 589 -240 760 -10 33 -33 114 -50 180 -18 66 -43 155 -56 198 -13
43 -24 84 -24 91 0 8 -7 38 -16 67 -8 30 -20 70 -25 89 -65 254 -203 625 -334
895 -156 324 -387 699 -619 1005 -102 135 -136 177 -300 365 -178 205 -520
533 -736 705 -58 46 -125 100 -150 120 -41 33 -236 170 -277 195 -9 6 -25 17
-35 26 -10 9 -78 51 -151 94 -73 43 -149 89 -170 102 -49 31 -416 211 -493
242 -32 13 -72 29 -89 36 -146 64 -451 161 -685 218 -398 98 -672 137 -1335
192 -166 14 -465 35 -1225 85 -162 11 -356 24 -430 30 -74 6 -272 19 -440 30
-168 11 -402 26 -520 34 -271 19 -1095 74 -1215 81 -49 3 -146 10 -215 15
-247 19 -576 40 -615 41 -22 0 -87 0 -145 0 -58 0 -175 4 -260 10 -175 10
-276 15 -640 29 -284 11 -394 12 -401 5z m265 -1750 c123 -43 250 -144 325
-258 55 -85 88 -177 227 -627 182 -589 255 -791 301 -832 54 -49 152 -63 578
-78 679 -24 789 -36 914 -97 96 -48 222 -168 274 -263 72 -132 92 -287 49
-384 -30 -66 -90 -143 -127 -163 -95 -50 -141 -72 -152 -73 -7 0 -13 -4 -13
-10 0 -5 -9 -10 -20 -10 -12 0 -33 -8 -47 -17 -24 -16 -61 -18 -382 -17 -368
0 -422 3 -544 30 -40 9 -94 20 -122 24 -27 4 -54 9 -60 10 -29 7 -35 -2 -35
-54 0 -89 28 -201 205 -806 82 -279 130 -465 146 -563 22 -131 -13 -238 -113
-350 -24 -26 -50 -47 -59 -47 -9 0 -22 -7 -29 -15 -7 -8 -19 -15 -27 -15 -7 0
-16 -7 -19 -15 -4 -8 -11 -12 -16 -9 -5 4 -23 -3 -39 -15 -15 -11 -34 -21 -40
-21 -21 0 -79 -24 -79 -32 0 -4 -6 -8 -14 -8 -7 0 -19 -7 -26 -15 -7 -8 -38
-20 -71 -27 -32 -6 -56 -15 -53 -20 11 -17 -74 -6 -129 16 -93 38 -164 86
-235 158 -123 122 -157 202 -318 735 -224 747 -258 849 -296 890 -13 13 -41
25 -81 32 -74 13 -356 30 -529 33 -92 1 -110 3 -73 8 49 7 48 7 -22 8 -40 1
-73 5 -73 10 0 4 -53 8 -117 9 -71 1 -119 6 -121 13 -2 6 -48 10 -120 10 -91
-1 -121 -4 -137 -17 -19 -15 -19 -15 10 -9 20 4 25 3 15 -3 -17 -11 -175 4
-230 21 -278 85 -501 388 -477 647 8 98 43 154 174 282 216 210 177 202 886
200 306 -1 557 1 557 5 0 8 -61 235 -100 374 -208 739 -233 846 -220 942 11
80 43 129 155 243 168 169 249 210 400 200 45 -3 110 -16 149 -30z m7248 -329
c98 -19 150 -39 231 -87 230 -137 399 -416 385 -637 -7 -97 -18 -123 -90 -213
-21 -25 -35 -49 -31 -53 3 -3 -1 -6 -10 -6 -8 0 -19 -9 -22 -20 -4 -13 -15
-20 -31 -20 -13 0 -24 -5 -24 -11 0 -7 -12 -9 -33 -5 -22 4 -45 1 -66 -10 -18
-9 -41 -14 -51 -11 -10 3 -28 -4 -39 -14 -12 -11 -35 -19 -56 -19 -19 0 -35
-4 -35 -9 0 -8 -103 -25 -150 -23 -23 0 -23 0 -2 -5 24 -5 30 -23 7 -23 -31 0
-128 51 -200 105 -125 94 -213 202 -289 352 -50 102 -69 175 -70 283 -1 83 2
102 25 151 61 130 230 252 384 278 74 13 86 12 167 -3z m-768 -1540 c140 -47
256 -128 359 -251 66 -79 139 -219 164 -315 20 -78 22 -220 4 -275 -22 -65
-53 -125 -61 -120 -4 3 -17 -13 -27 -35 -16 -31 -23 -36 -33 -27 -10 10 -11 7
-5 -10 4 -14 2 -23 -4 -23 -6 0 -11 6 -11 13 0 8 -3 8 -8 1 -24 -36 -200 -76
-332 -75 -118 0 -150 6 -197 32 -18 10 -35 18 -38 18 -14 -1 -101 36 -111 48
-6 7 -19 13 -28 13 -9 0 -16 6 -16 13 0 13 -86 107 -99 107 -4 0 -15 16 -24
35 -9 19 -23 35 -32 35 -8 0 -15 6 -15 14 0 17 -70 72 -87 68 -7 -2 -20 14
-29 35 -9 21 -20 45 -25 55 -22 45 -42 151 -42 230 1 76 4 95 31 150 34 71 62
103 145 170 70 57 167 106 233 118 80 15 204 4 288 -24z m2692 -61 c95 -18
218 -77 297 -142 101 -84 199 -214 236 -313 7 -19 18 -45 24 -58 6 -13 11 -79
11 -150 0 -121 -1 -129 -28 -174 -15 -27 -32 -48 -36 -48 -15 0 -24 24 -12 28
7 2 12 11 12 20 0 10 7 26 15 36 16 21 21 96 7 96 -9 0 -37 -70 -34 -83 1 -5
-2 -6 -8 -2 -6 3 -22 -3 -35 -13 -32 -25 -152 -46 -215 -38 -43 6 -82 20 -132
47 -10 5 -26 9 -37 9 -10 0 -21 6 -24 14 -3 8 -30 22 -59 31 -29 10 -55 21
-58 24 -11 13 -80 40 -80 31 0 -6 -7 -10 -15 -10 -22 0 -29 -25 -17 -60 11
-29 10 -30 -21 -30 -26 0 -43 12 -94 66 -35 37 -63 72 -63 78 -1 15 -36 56
-48 56 -5 0 -17 9 -27 20 -24 26 -29 25 -43 -7 l-12 -28 5 30 c2 17 2 24 -1
18 -3 -7 -12 -13 -20 -13 -9 0 -14 -11 -14 -27 -1 -25 -3 -24 -21 15 -26 56
-37 201 -20 269 19 74 65 137 144 196 157 118 256 144 423 112z m1412 -1223
c69 -366 37 -807 -79 -1084 -17 -40 -37 -91 -45 -112 -8 -22 -18 -44 -23 -50
-5 -6 -23 -38 -41 -71 -52 -94 -136 -202 -232 -297 -85 -85 -193 -167 -204
-155 -3 3 16 25 43 49 77 70 131 128 196 213 66 86 177 295 177 332 0 13 4 31
9 41 22 40 31 121 31 281 l0 171 -60 0 -60 0 0 -44 c0 -38 -3 -43 -19 -39 -15
4 -20 -2 -25 -29 -3 -19 -17 -50 -31 -68 -14 -19 -25 -40 -25 -47 0 -7 -4 -13
-10 -13 -5 0 -10 -6 -10 -13 0 -7 -13 -37 -29 -67 -17 -30 -45 -84 -63 -120
-33 -67 -113 -195 -135 -218 -7 -7 -13 -17 -13 -21 0 -5 -12 -21 -28 -37 -15
-16 -38 -44 -51 -63 -51 -72 -224 -226 -273 -243 -16 -6 -28 -14 -28 -19 0 -5
-8 -9 -17 -9 -13 1 -10 6 12 22 38 28 205 196 225 227 8 13 31 43 50 67 40 49
135 233 179 344 31 79 80 275 101 400 7 43 15 200 17 365 2 159 6 291 7 293 2
1 9 -19 16 -45 6 -26 16 -57 21 -68 4 -11 18 -69 29 -128 11 -59 27 -121 35
-137 8 -16 15 -37 15 -47 0 -26 25 -68 38 -65 8 1 12 -15 12 -48 l0 -50 40 0
c38 0 40 1 41 33 0 30 1 31 11 10 6 -13 15 -23 19 -23 11 0 23 46 15 58 -3 5
3 20 14 32 11 13 20 33 20 45 0 12 12 39 26 60 15 23 28 58 31 89 3 28 11 57
16 65 7 7 12 69 13 145 3 191 2 184 18 163 7 -9 18 -43 24 -75z m-7037 -127
c2 -88 -3 -214 -9 -279 -12 -111 -18 -145 -56 -316 -23 -105 -94 -297 -153
-414 -102 -204 -239 -387 -444 -597 -241 -246 -247 -250 -477 -310 -541 -141
-922 -228 -922 -209 0 8 28 16 200 55 325 74 687 171 728 194 22 13 11 14 -21
2 -13 -5 -30 -6 -37 -1 -9 6 -6 10 11 15 13 4 38 18 56 31 17 13 35 24 40 24
4 0 24 16 44 35 21 19 61 48 90 66 30 17 58 37 62 45 4 8 14 14 21 14 6 0 29
16 50 35 21 19 42 35 47 35 5 0 13 9 19 20 6 11 16 20 23 20 12 0 127 106 127
117 0 3 9 15 20 27 71 73 110 119 110 130 0 7 11 23 25 36 14 13 25 28 25 33
0 5 16 31 35 57 19 26 35 50 35 54 0 7 47 102 82 168 14 25 28 62 32 81 4 20
10 37 14 39 6 2 63 172 117 348 33 110 67 328 81 528 3 52 10 90 14 85 5 -4
10 -80 11 -168z m-485 -205 c-6 -173 -12 -224 -50 -405 -34 -162 -144 -415
-232 -536 -19 -26 -34 -51 -34 -56 0 -5 -13 -23 -30 -39 -16 -16 -30 -34 -30
-40 0 -5 -16 -25 -35 -44 -36 -34 -45 -60 -22 -60 6 0 23 12 37 28 14 15 21
22 16 15 -13 -19 48 -17 64 2 17 20 27 19 33 -6 6 -21 -4 -60 -29 -116 -8 -17
-14 -36 -14 -42 0 -5 -16 -23 -35 -38 -19 -15 -35 -32 -35 -38 0 -5 -21 -25
-45 -44 -25 -18 -45 -37 -45 -42 0 -5 -7 -9 -16 -9 -8 0 -29 -13 -47 -30 -18
-16 -38 -30 -44 -30 -7 0 -13 -4 -13 -9 0 -5 -8 -11 -17 -15 -19 -6 -55 -27
-63 -37 -3 -3 -27 -14 -55 -24 -27 -10 -57 -24 -66 -32 -8 -7 -23 -13 -31 -13
-9 0 -37 -9 -63 -20 -26 -11 -62 -20 -80 -20 -19 0 -36 -4 -39 -9 -7 -11 -271
-35 -311 -28 -16 3 -40 6 -52 6 -35 1 -27 19 9 23 17 2 34 9 36 17 4 11 -1 12
-19 6 -25 -7 -175 -29 -264 -38 -67 -6 -34 6 90 34 399 90 717 261 968 523 95
100 210 255 267 361 23 44 46 85 50 90 9 11 87 203 102 250 14 46 60 217 65
245 30 164 43 251 48 335 8 128 15 153 28 105 5 -20 7 -112 3 -220z m8277 112
c23 -127 31 -162 57 -252 11 -41 25 -95 31 -120 6 -25 14 -54 18 -65 5 -11 14
-40 21 -65 7 -25 16 -54 21 -65 4 -11 11 -36 15 -55 3 -19 10 -39 14 -45 5 -5
16 -39 25 -75 9 -36 20 -69 25 -75 4 -5 11 -26 15 -45 4 -19 11 -39 15 -45 4
-5 10 -23 13 -40 8 -47 65 -224 108 -340 6 -16 20 -57 30 -90 17 -57 44 -131
66 -185 6 -14 9 -29 6 -33 -3 -4 0 -13 5 -20 5 -7 13 -28 17 -47 4 -19 11 -39
15 -45 4 -5 10 -27 13 -49 3 -21 13 -46 22 -56 8 -9 19 -36 24 -61 17 -81 43
-174 52 -183 5 -6 9 -21 9 -34 0 -13 4 -20 10 -17 5 3 9 -2 8 -12 -4 -27 13
-104 21 -99 4 3 8 -7 9 -22 3 -39 34 -142 41 -138 3 2 6 -9 7 -26 1 -16 8 -53
17 -81 29 -93 49 -171 61 -237 7 -36 18 -81 24 -100 18 -58 52 -190 67 -265 8
-38 21 -101 30 -140 8 -38 19 -92 24 -120 5 -27 15 -70 21 -95 6 -25 18 -81
26 -125 8 -44 23 -120 34 -170 10 -49 22 -117 25 -150 4 -33 12 -94 20 -135 7
-41 18 -115 25 -165 6 -49 16 -113 21 -141 5 -28 12 -80 14 -115 2 -35 9 -125
15 -199 11 -152 10 -729 -2 -890 -4 -58 -8 -118 -8 -133 -1 -15 -5 -25 -10
-22 -6 4 -10 -14 -10 -42 0 -26 -3 -59 -6 -73 -5 -21 -4 -22 6 -10 10 13 11
13 7 -1 -17 -55 -50 -198 -62 -274 -21 -131 -38 -209 -46 -215 -3 -3 -14 -38
-23 -79 -9 -40 -23 -89 -31 -109 -8 -19 -15 -45 -15 -58 0 -12 -4 -25 -9 -28
-5 -3 -19 -37 -30 -75 -12 -39 -26 -73 -31 -76 -6 -3 -10 -15 -10 -26 0 -11
-7 -27 -15 -35 -8 -8 -20 -34 -26 -57 -6 -23 -16 -51 -22 -62 -6 -11 -12 -28
-14 -38 -2 -10 -12 -27 -23 -39 -11 -12 -20 -28 -20 -36 0 -14 -29 -72 -41
-82 -18 -16 -79 -123 -79 -140 0 -11 -6 -20 -12 -20 -7 0 -23 -18 -36 -40 -12
-22 -27 -40 -31 -40 -5 0 -26 -25 -46 -55 -20 -31 -46 -66 -58 -78 -12 -13
-46 -51 -76 -85 -30 -34 -60 -62 -67 -62 -7 0 -20 -10 -28 -21 -9 -13 -25 -22
-42 -21 -15 0 -34 -7 -42 -14 -7 -8 -20 -14 -28 -14 -8 0 -14 -4 -14 -10 0 -5
-16 -10 -36 -10 -27 0 -41 7 -58 27 -46 59 -56 99 -56 224 0 65 4 119 9 119 5
0 12 36 16 80 4 44 11 80 16 80 5 0 9 22 9 48 0 26 5 53 11 59 6 6 11 30 11
52 0 23 3 41 7 41 12 0 42 88 45 128 1 18 7 36 12 40 18 12 48 75 50 107 4 45
28 103 52 126 23 20 29 39 13 39 -12 0 37 119 57 139 14 15 14 16 -1 19 -22 5
-21 18 2 34 26 18 53 90 58 156 3 28 9 52 14 52 5 0 9 7 9 16 0 8 7 22 15 30
10 10 15 35 15 72 1 31 7 68 15 82 10 17 14 57 15 122 0 89 12 134 23 91 3
-10 5 1 6 25 0 23 5 42 10 42 5 0 12 72 16 160 4 88 11 160 16 160 5 0 9 54 9
119 0 82 4 121 12 123 17 6 18 950 1 955 -10 4 -13 37 -13 124 0 65 -4 119 -8
119 -5 0 -12 89 -16 198 -4 109 -11 198 -16 200 -6 2 -11 40 -12 85 -1 46 -3
63 -5 40 -2 -24 -8 -43 -12 -43 -10 0 -21 99 -21 181 0 33 -4 59 -10 59 -5 0
-10 18 -10 40 0 22 -4 40 -9 40 -5 0 -12 36 -16 80 -5 58 -11 80 -21 80 -10 0
-14 12 -14 40 0 28 -4 40 -14 40 -10 0 -16 22 -21 80 -6 69 -10 80 -26 80 -15
0 -19 7 -19 40 0 29 -4 40 -15 40 -11 0 -15 11 -15 40 0 22 -4 40 -10 40 -5 0
-10 18 -10 40 0 29 -4 40 -15 40 -11 0 -15 11 -15 40 0 29 -4 40 -15 40 -11 0
-15 11 -15 36 0 28 -8 43 -40 74 -35 34 -40 44 -40 84 0 42 -2 46 -25 46 -22
0 -25 4 -25 40 0 29 -4 40 -15 40 -11 0 -15 12 -15 44 0 25 -4 48 -10 51 -5 3
-10 1 -10 -4 0 -6 -7 -11 -15 -11 -11 0 -15 11 -15 40 0 29 -4 40 -15 40 -11
0 -15 11 -15 40 0 36 -2 40 -25 40 -24 0 -25 2 -26 73 0 39 -4 97 -8 126 -5
33 -4 68 2 89 8 24 8 39 -1 53 -16 26 -16 47 0 31 22 -22 27 -13 34 68 3 44
11 83 15 86 5 3 9 20 10 37 0 26 2 28 8 12 5 -13 8 -1 8 35 0 30 7 91 16 135
34 181 42 290 41 585 -1 274 -18 524 -41 587 -4 11 -2 15 3 10 5 -5 17 -52 27
-105z m-2908 -126 c200 -67 370 -214 463 -401 60 -119 75 -186 70 -302 -3 -89
-7 -103 -37 -156 -18 -31 -36 -55 -41 -52 -7 5 5 78 16 97 3 4 2 13 -1 19 -4
6 -18 -2 -36 -20 -16 -17 -41 -34 -56 -37 -16 -4 -31 -11 -34 -16 -3 -4 -46
-11 -96 -14 -83 -6 -97 -4 -169 21 -44 16 -83 32 -88 37 -6 4 -18 8 -27 8 -19
0 -172 79 -177 92 -8 17 -32 7 -44 -19 -20 -42 -52 -41 -93 1 -19 20 -39 36
-45 36 -5 0 -12 11 -16 25 -3 14 -13 25 -21 25 -14 0 -72 57 -73 71 0 9 -66
18 -89 12 -11 -3 -21 -15 -23 -27 -8 -44 -30 59 -35 161 -8 167 27 238 170
345 130 96 197 119 337 114 52 -2 117 -11 145 -20z m616 -1362 c486 -81 965
-440 1264 -949 125 -212 187 -369 237 -595 33 -151 33 -430 0 -573 -48 -208
-126 -347 -277 -490 -72 -69 -166 -123 -282 -162 l-83 -28 -2 -71 -2 -71 -3
68 -4 68 -72 -7 c-40 -3 -90 -7 -112 -8 l-40 -2 -8 -59 c-27 -216 -76 -351
-178 -490 -35 -48 -132 -145 -145 -145 -3 0 14 23 38 51 149 176 217 326 252
563 9 54 9 79 2 81 -6 2 -44 6 -85 10 -41 4 -113 18 -160 32 -47 14 -93 27
-102 30 -11 3 -23 -8 -38 -37 -12 -23 -17 -39 -11 -35 12 7 12 -12 0 -40 -5
-11 -9 -14 -9 -6 -1 8 -13 -3 -27 -24 -14 -21 -32 -44 -40 -52 -8 -8 -14 -19
-14 -25 0 -14 -132 -138 -148 -138 -4 0 -15 -8 -24 -17 -37 -39 -49 -45 -101
-42 -103 5 -135 0 -161 -26 -14 -14 -30 -25 -35 -25 -6 0 -26 -9 -45 -19 -19
-11 -52 -23 -73 -27 -21 -3 -47 -12 -58 -19 -11 -6 -42 -19 -70 -28 -64 -21
-282 -16 -333 9 -18 8 -36 13 -41 10 -4 -3 -16 3 -26 14 -10 11 -25 20 -34 20
-9 0 -31 9 -49 20 -18 11 -41 20 -52 20 -10 0 -23 6 -27 13 -4 7 -42 37 -83
67 -71 51 -112 85 -167 138 -13 12 -26 22 -28 22 -2 0 -35 32 -72 71 -37 39
-79 81 -93 93 -46 39 -90 90 -90 103 0 7 -7 13 -15 13 -8 0 -20 9 -27 20 -7
11 -17 20 -22 20 -10 0 -32 25 -119 130 -34 41 -67 79 -74 83 -7 4 -13 16 -13
26 0 10 -9 26 -20 36 -11 10 -20 24 -20 31 0 7 -3 14 -7 16 -15 6 -71 173 -80
238 -3 19 -9 40 -13 45 -11 14 -10 295 1 295 5 0 9 17 9 38 1 48 23 139 44
179 9 18 16 36 16 41 0 28 99 180 153 235 74 76 129 114 239 167 124 60 201
73 411 74 l177 0 0 61 c0 83 17 227 36 305 22 88 75 216 119 284 44 69 142
175 205 221 51 38 182 105 242 124 124 40 316 51 469 25z m-4635 -50 c330 -58
694 -255 960 -519 304 -303 496 -639 590 -1035 34 -142 44 -399 20 -542 -49
-302 -198 -551 -424 -712 -111 -79 -211 -123 -378 -166 -42 -10 -42 -10 -48
-68 -8 -68 -50 -220 -77 -279 -10 -24 -19 -46 -19 -50 0 -14 -85 -150 -124
-197 -89 -108 -177 -180 -300 -242 -75 -39 -101 -42 -33 -4 179 99 343 277
429 467 53 119 108 296 108 353 0 5 -46 6 -102 3 -60 -3 -141 -1 -193 7 -166
22 -183 23 -202 9 -10 -8 -20 -23 -21 -34 -2 -11 -8 -24 -13 -29 -5 -6 -9 -17
-9 -27 0 -9 -13 -30 -30 -47 -16 -18 -30 -35 -30 -39 0 -7 -16 -24 -104 -110
-12 -12 -33 -27 -47 -33 -13 -5 -31 -14 -39 -20 -8 -5 -26 -14 -40 -20 -36
-14 -63 -32 -78 -52 -7 -10 -17 -18 -23 -18 -5 0 -17 -8 -28 -17 -39 -38 -98
-79 -136 -96 -22 -10 -42 -22 -45 -26 -10 -15 -126 -64 -185 -78 -89 -21 -257
-28 -313 -13 -199 53 -322 103 -424 172 -16 10 -41 27 -58 38 -16 11 -34 20
-39 20 -6 0 -14 6 -18 13 -4 7 -19 20 -33 29 -42 26 -247 233 -254 256 -4 12
-14 22 -22 22 -8 0 -14 4 -14 10 0 5 -10 20 -22 33 -23 23 -114 144 -133 176
-5 9 -12 18 -15 21 -11 11 -86 125 -105 159 -11 20 -29 46 -39 58 -11 12 -30
48 -44 80 -13 32 -27 60 -31 63 -14 11 -51 121 -72 215 -26 117 -31 343 -10
435 58 250 149 404 318 541 175 140 394 219 614 219 l66 0 7 88 c8 99 28 205
58 307 19 67 94 229 117 257 7 7 22 27 34 44 123 173 335 314 551 368 143 36
334 40 502 10z m-9276 -2524 c40 0 40 0 40 -40 0 -29 4 -40 15 -40 11 0 15
-11 15 -40 0 -29 -4 -40 -15 -40 -11 0 -15 -11 -15 -40 l0 -40 -40 0 -40 0 0
40 0 40 -40 0 -40 0 0 40 c0 30 -4 40 -16 40 -14 0 -15 2 -3 17 13 15 14 15
17 0 3 -12 14 -17 43 -17 39 0 39 0 39 40 0 29 -4 40 -15 40 -19 0 -21 80 -2
99 10 10 13 1 15 -43 l3 -56 39 0z m-1000 -710 c0 -5 9 -10 20 -10 17 0 20 -7
20 -40 0 -33 3 -40 20 -40 17 0 20 -7 20 -40 0 -28 -4 -40 -14 -40 -11 0 -16
-22 -20 -87 -3 -49 -13 -115 -22 -148 -8 -33 -17 -72 -18 -87 -2 -16 -10 -43
-18 -60 -9 -18 -23 -55 -31 -83 -8 -27 -20 -63 -25 -80 -6 -16 -18 -57 -27
-90 -9 -33 -23 -80 -31 -105 -8 -25 -14 -51 -14 -59 0 -8 -6 -22 -13 -30 -13
-15 -31 -71 -57 -176 -7 -27 -17 -54 -21 -60 -5 -5 -9 -19 -9 -32 0 -13 -4
-23 -10 -23 -5 0 -12 -12 -15 -27 -9 -44 -37 -136 -46 -155 -5 -10 -9 -26 -9
-37 0 -11 -5 -21 -10 -23 -10 -3 -36 -102 -44 -166 -2 -13 -8 -28 -15 -35 -6
-6 -11 -27 -11 -47 0 -19 -7 -45 -15 -57 -8 -12 -19 -53 -25 -93 -6 -39 -17
-84 -25 -100 -8 -16 -15 -47 -15 -70 0 -23 -7 -54 -15 -69 -8 -16 -19 -56 -24
-89 -5 -33 -17 -74 -25 -91 -9 -16 -16 -44 -16 -61 0 -27 -15 -67 -31 -80 -3
-3 -9 -17 -12 -32 -4 -15 -14 -33 -22 -42 -8 -8 -15 -31 -15 -50 0 -20 -4 -36
-9 -36 -4 0 -19 -10 -33 -22 -80 -71 -104 -75 -142 -25 -15 19 -26 43 -26 53
0 11 -7 30 -16 43 -15 20 -16 41 -11 145 10 187 40 389 66 451 9 19 37 120 61
215 7 25 15 50 20 55 4 6 10 21 13 35 7 33 52 150 77 202 11 23 20 49 20 58 0
10 13 44 30 76 16 32 30 65 30 72 0 7 9 32 20 54 11 23 20 45 20 50 0 4 11 32
25 62 14 30 25 59 25 63 0 5 9 26 20 48 11 22 20 45 20 53 0 8 6 26 14 40 24
47 56 122 56 131 0 5 20 52 45 104 25 53 45 104 45 115 0 11 9 31 21 46 11 14
18 30 14 36 -3 5 3 18 15 30 11 11 20 29 20 40 0 11 9 39 19 62 11 24 22 50
25 58 3 8 10 22 15 30 5 8 15 30 21 48 7 17 19 32 26 32 17 0 19 17 2 22 -7 3
1 17 20 37 17 19 29 38 26 43 -7 11 26 98 37 98 5 0 9 -4 9 -10z"/>
</g>
</svg>
