<?xml version="1.0" standalone="no"?>
<!DOCTYPE svg PUBLIC "-//W3C//DTD SVG 20010904//EN"
 "http://www.w3.org/TR/2001/REC-SVG-20010904/DTD/svg10.dtd">
<svg version="1.0" xmlns="http://www.w3.org/2000/svg"
 width="2100.000000pt" height="2100.000000pt" viewBox="0 0 2100.000000 2100.000000"
 preserveAspectRatio="xMidYMid meet">

<g transform="translate(0.000000,2100.000000) scale(0.100000,-0.100000)"
fill="#000000" stroke="none">
<path d="M10301 16879 c-177 -21 -418 -98 -576 -184 -171 -93 -339 -238 -441
-381 -51 -71 -124 -207 -124 -230 0 -25 -29 -15 -69 25 -177 177 -493 -71
-689 -539 -68 -162 -86 -259 -87 -450 0 -142 3 -176 23 -243 53 -185 157 -330
312 -437 53 -36 65 -60 32 -60 -24 0 -93 49 -159 113 -37 35 -54 46 -57 36
-21 -65 -46 -395 -46 -613 0 -162 1 -168 18 -153 43 39 88 47 324 58 142 7
236 15 240 22 13 22 20 151 13 270 l-7 124 78 16 c207 44 422 59 634 47 188
-12 301 -40 795 -204 671 -221 797 -250 1080 -251 99 0 200 4 224 8 l44 8 -7
-38 c-3 -21 -9 -63 -12 -93 l-6 -55 123 -23 c168 -32 197 -43 245 -96 46 -50
64 -103 64 -187 0 -69 -36 -458 -58 -637 l-19 -143 23 -57 c14 -34 40 -72 64
-95 l40 -38 -20 -117 c-12 -64 -24 -132 -27 -149 -3 -20 -1 -33 5 -33 6 0 46
38 90 85 142 152 180 274 133 432 -26 86 -27 119 -3 131 39 21 94 -34 122
-120 14 -47 29 -57 47 -32 17 23 11 50 -28 132 -21 43 -44 73 -72 93 -37 27
-49 30 -100 27 -33 -2 -57 1 -57 7 0 6 13 103 30 217 62 438 90 753 90 1032
l0 176 30 48 c171 278 208 718 94 1127 -51 183 -145 339 -223 372 -50 21 -85
8 -136 -50 l-45 -52 0 50 c-1 130 -67 302 -155 402 -118 134 -324 223 -586
254 -120 14 -418 6 -546 -14 -53 -8 -79 -9 -75 -2 3 5 18 27 33 48 63 87 74
194 28 262 -87 127 -347 189 -648 154z"/>
<path d="M6723 15470 c236 -256 301 -641 172 -1027 -66 -198 -159 -348 -308
-497 -149 -150 -284 -235 -487 -307 -93 -33 -98 -34 -262 -34 -163 0 -166 0
-135 -17 180 -92 451 -94 672 -5 118 47 243 129 346 225 85 81 117 120 197
244 20 31 44 57 53 58 33 0 127 244 155 400 17 101 20 303 4 390 -49 272 -196
484 -425 615 l-50 29 68 -74z"/>
<path d="M5995 15466 c-168 -33 -305 -106 -438 -235 -139 -134 -224 -275 -279
-467 -20 -68 -23 -101 -22 -239 0 -146 2 -167 27 -240 67 -201 204 -347 388
-412 105 -38 254 -43 370 -14 309 77 572 344 669 681 31 107 39 310 15 416
-23 109 -91 245 -159 320 -141 156 -364 230 -571 190z m254 -51 c186 -44 352
-203 412 -395 116 -373 -67 -819 -423 -1032 -384 -229 -818 -62 -924 357 -26
102 -24 274 4 389 83 334 353 615 657 681 82 18 197 18 274 0z"/>
<path d="M5982 15336 c-267 -51 -515 -299 -591 -590 -22 -82 -28 -176 -12
-176 17 0 28 26 35 84 20 178 138 384 288 504 279 221 617 191 793 -71 19 -28
42 -73 51 -100 15 -44 15 -50 0 -66 -21 -24 -20 -74 2 -94 43 -39 112 -1 112
60 0 33 -22 63 -44 63 -7 0 -21 21 -31 48 -41 110 -127 217 -222 275 -101 63
-250 87 -381 63z m636 -453 c-2 -20 -9 -29 -25 -31 -15 -2 -23 2 -23 11 0 29
12 47 32 47 15 0 19 -6 16 -27z"/>
<path d="M6587 14733 c-4 -3 -7 -23 -7 -44 0 -58 -47 -206 -93 -293 -82 -155
-253 -304 -407 -356 -78 -27 -216 -37 -287 -22 -141 31 -265 131 -330 267 -35
75 -36 78 -20 105 35 59 4 129 -51 115 -78 -18 -84 -122 -9 -148 9 -4 17 -13
17 -20 0 -8 16 -47 37 -87 67 -134 196 -236 342 -270 76 -18 230 -8 311 19
189 64 361 224 455 422 60 127 97 319 62 319 -8 0 -17 -3 -20 -7z m-1169 -290
c3 -22 -22 -48 -38 -38 -14 8 -13 38 2 53 16 16 32 10 36 -15z"/>
<path d="M6690 14231 c-13 -24 -13 -51 -1 -51 12 0 41 40 41 57 0 20 -28 15
-40 -6z"/>
<path d="M6529 14028 c-90 -91 -147 -139 -209 -177 -256 -156 -534 -183 -768
-76 -63 29 -72 30 -72 10 0 -20 61 -50 165 -80 71 -20 109 -25 204 -25 270 0
506 109 714 329 76 81 101 115 95 133 -2 6 -60 -45 -129 -114z"/>
<path d="M14259 14047 c-104 -30 -190 -104 -237 -206 -22 -47 -27 -70 -27
-141 0 -103 28 -172 99 -248 69 -73 148 -106 256 -107 75 0 93 4 150 31 187
90 261 296 171 478 -75 152 -256 237 -412 193z m130 -186 c79 -22 148 -44 153
-49 10 -10 -63 -287 -80 -304 -12 -12 -92 11 -99 29 -8 20 3 27 40 28 31 0 31
0 60 104 16 57 25 107 20 111 -15 13 -206 61 -213 53 -10 -12 -60 -205 -55
-213 3 -4 20 -11 39 -14 53 -10 76 -56 27 -56 -32 0 -119 30 -124 43 -7 18 74
307 86 307 1 0 67 -18 146 -39z"/>
<path d="M8683 13759 c-237 -12 -249 -24 -246 -246 2 -201 52 -646 94 -833
l12 -55 23 71 c34 105 54 264 54 417 0 130 1 135 23 150 83 54 196 182 257
291 l34 59 -111 -7 c-82 -5 -113 -4 -119 5 -14 23 28 37 137 44 121 8 120 7
136 88 l6 27 -74 -1 c-41 -1 -142 -6 -226 -10z m-5 -147 c-3 -17 -52 -34 -74
-25 -25 9 -11 37 21 44 39 7 57 0 53 -19z"/>
<path d="M5585 13626 c11 -8 29 -16 40 -16 27 0 7 16 -30 24 -29 7 -29 7 -10
-8z"/>
<path d="M11843 13513 c12 -189 69 -324 187 -444 66 -67 135 -118 145 -107 6
6 35 354 35 416 0 66 -29 134 -70 164 -23 17 -234 68 -281 68 -21 0 -22 -3
-16 -97z"/>
<path d="M9205 13494 c-107 -21 -138 -30 -192 -51 -73 -29 -82 -44 -20 -32 70
13 233 10 314 -7 134 -27 269 -89 382 -173 32 -24 66 -41 81 -41 45 0 90 63
90 124 0 38 -18 49 -27 16 -7 -27 -23 -26 -23 1 0 54 -131 127 -278 155 -67
13 -277 18 -327 8z"/>
<path d="M11235 13479 c-138 -20 -311 -93 -360 -151 -14 -16 -25 -42 -25 -56
l-1 -27 -15 28 c-20 37 -34 34 -34 -8 0 -44 21 -86 56 -114 38 -30 57 -26 109
19 93 80 227 160 319 190 38 12 76 45 117 103 l20 27 -63 -1 c-35 -1 -90 -5
-123 -10z"/>
<path d="M11499 13463 c-42 -51 -47 -48 97 -48 151 -1 152 8 7 45 -92 24 -87
24 -104 3z"/>
<path d="M9219 13246 c-153 -59 -263 -174 -309 -324 -21 -69 -27 -137 -10
-127 6 3 10 14 10 23 0 9 13 46 30 80 55 116 195 223 310 237 42 5 41 4 -19
-16 -86 -28 -179 -117 -205 -197 -53 -158 24 -308 191 -373 84 -32 237 -33
308 -1 113 52 175 153 161 268 -3 29 -9 61 -12 71 -3 10 3 5 15 -12 26 -37 61
-146 61 -191 0 -19 5 -34 10 -34 13 0 13 95 -1 162 -6 29 -33 98 -60 154 -61
125 -132 207 -221 254 -54 29 -75 34 -143 37 -51 2 -93 -2 -116 -11z m75 -477
c46 -36 22 -119 -34 -119 -21 0 -70 41 -70 59 0 26 22 62 42 71 32 12 32 12
62 -11z"/>
<path d="M11289 13130 c-69 -12 -147 -56 -215 -122 -128 -122 -215 -292 -213
-413 1 -38 2 -37 23 30 21 65 83 181 92 172 3 -2 -1 -17 -7 -33 -6 -16 -12
-58 -12 -95 -3 -164 140 -274 353 -273 148 2 260 61 315 169 26 51 30 69 29
134 -1 93 -27 154 -96 224 -43 43 -44 46 -15 30 49 -25 139 -122 170 -184 15
-30 34 -84 41 -120 12 -58 14 -61 21 -35 13 46 -12 170 -48 249 -88 188 -267
297 -438 267z m-53 -476 c20 -19 24 -31 20 -52 -8 -32 -40 -62 -68 -62 -25 0
-68 44 -68 70 0 11 11 32 25 45 31 32 59 32 91 -1z"/>
<path d="M14730 13003 c1 -10 18 -47 39 -83 l39 -65 -69 -40 c-70 -41 -89 -62
-67 -76 7 -5 42 8 86 33 40 22 75 38 76 37 2 -2 20 -34 40 -71 20 -36 43 -69
52 -72 19 -7 30 21 17 43 -5 9 -24 41 -41 72 l-32 56 25 13 c33 18 35 54 3 47
-13 -2 -30 -7 -38 -11 -11 -4 -26 13 -54 64 -27 46 -46 70 -58 70 -11 0 -18
-7 -18 -17z"/>
<path d="M8344 12996 c-37 -17 -96 -84 -123 -142 -24 -51 -26 -77 -7 -93 16
-14 23 -6 57 63 28 57 64 88 97 84 45 -5 47 -27 12 -113 -54 -134 -51 -233 10
-355 21 -41 111 -163 116 -157 7 7 -37 387 -61 522 -13 77 -25 155 -25 173 0
27 -4 32 -22 32 -13 -1 -37 -7 -54 -14z"/>
<path d="M14963 12943 c-14 -5 -18 -35 -7 -46 13 -12 63 24 64 46 0 8 -38 8
-57 0z"/>
<path d="M10099 12571 c-40 -64 -95 -159 -122 -213 l-50 -96 17 -46 c33 -87
157 -196 222 -196 28 0 153 62 192 94 37 32 42 51 10 42 -108 -32 -177 -46
-200 -41 -15 4 -55 33 -89 66 -53 51 -60 62 -54 86 5 21 137 247 215 370 17
27 12 32 -34 43 l-36 8 -71 -117z"/>
<path d="M12391 12126 c-22 -26 -9 -70 23 -81 24 -8 31 -6 47 14 23 28 24 45
3 65 -19 20 -58 21 -73 2z"/>
<path d="M10696 12084 c-22 -22 -20 -37 9 -64 14 -13 25 -29 25 -35 0 -16
-174 -96 -275 -128 -166 -52 -281 -68 -505 -71 -120 -1 -125 -2 -128 -23 -5
-37 30 -46 198 -51 237 -7 459 37 678 133 44 19 85 35 90 35 6 0 18 -20 28
-46 15 -39 20 -45 43 -42 21 2 27 9 29 35 4 37 -41 149 -88 223 -26 41 -37 50
-60 50 -16 0 -36 -7 -44 -16z"/>
<path d="M10590 11655 c-67 -28 -192 -55 -254 -55 -42 0 -76 -18 -76 -40 0 -5
11 -16 23 -25 20 -13 39 -14 128 -5 114 12 265 44 286 61 16 14 17 61 1 77
-17 17 -45 14 -108 -13z"/>
<path d="M11553 10817 c-307 -271 -739 -436 -1143 -437 -53 0 -100 -4 -105 -9
-13 -11 -143 3 -270 30 -203 43 -373 113 -565 234 l-104 66 -461 2 c-447 2
-463 1 -565 -21 -410 -90 -756 -292 -978 -570 -225 -283 -572 -858 -1034
-1717 -290 -537 -674 -1282 -733 -1420 -216 -505 -249 -985 -98 -1419 140
-404 445 -706 849 -840 282 -93 650 -100 979 -16 377 95 586 266 684 558 26
78 51 229 51 313 l0 67 -92 -30 c-137 -43 -347 -94 -483 -119 -95 -17 -149
-20 -261 -17 l-141 3 -87 43 c-111 55 -178 121 -232 228 -38 73 -72 170 -63
178 2 2 63 -11 134 -29 157 -40 373 -79 555 -102 170 -21 640 -24 775 -5 210
30 355 66 355 88 0 18 -7 18 -98 -5 -415 -105 -970 -89 -1528 45 -82 20 -170
39 -195 43 -49 8 -109 46 -153 98 -81 96 -120 269 -98 442 l11 91 -48 64 c-74
97 -95 160 -96 281 0 85 4 111 28 176 16 42 48 107 73 145 l45 68 -21 88 c-36
155 -46 289 -27 396 21 127 54 190 146 283 91 91 214 173 456 304 281 151 365
217 705 550 107 105 224 215 260 245 36 29 68 58 72 64 3 6 16 48 27 93 30
115 85 257 133 337 49 82 170 212 253 271 188 133 493 225 750 225 l102 0 61
-124 c188 -383 523 -643 942 -733 121 -26 410 -25 530 1 354 77 661 285 853
579 l51 79 55 -7 c183 -23 340 -97 466 -221 132 -131 203 -272 250 -499 34
-170 104 -440 161 -629 46 -149 47 -152 122 -246 99 -124 253 -282 339 -347
37 -29 133 -101 213 -160 225 -167 348 -302 398 -435 24 -65 21 -240 -6 -350
-35 -143 -77 -239 -117 -271 -110 -88 -398 -140 -990 -179 -204 -14 -900 -11
-957 3 -83 21 -187 120 -217 207 -8 20 -20 45 -29 54 -11 13 -13 32 -9 76 11
130 89 227 218 276 63 23 846 187 1013 211 l48 8 -6 54 c-8 71 -26 111 -66
152 -32 32 -34 32 -41 13 -51 -138 -1028 -133 -1566 8 -112 29 -199 66 -222
94 -17 21 -7 46 34 86 31 30 35 31 35 14 0 -44 77 -84 238 -124 238 -59 545
-92 877 -92 292 0 473 25 525 74 19 18 20 22 7 41 -56 86 -472 174 -919 194
-115 5 -148 9 -148 20 0 20 -55 50 -134 75 -103 31 -176 106 -176 181 0 23 -1
23 -127 25 -71 0 -156 7 -189 15 l-62 13 -12 -40 c-7 -24 -29 -57 -51 -78 -39
-37 -54 -43 -183 -72 -85 -20 -106 -37 -106 -88 l0 -38 -47 1 c-27 0 -151 8
-278 17 l-230 17 2 30 c4 71 -19 92 -149 134 -51 17 -76 32 -107 66 -22 24
-43 56 -47 72 -15 68 -4 63 -137 63 -69 0 -148 6 -182 14 -33 8 -62 13 -66 10
-4 -2 -9 -17 -12 -32 -14 -70 -90 -125 -200 -146 -78 -15 -132 -37 -139 -57
-3 -8 -38 -7 -128 3 -166 17 -680 18 -775 0 -252 -46 -256 -115 -11 -186 404
-118 1212 -149 1424 -55 26 11 46 27 49 39 4 17 8 18 20 8 20 -16 43 -63 43
-88 0 -52 -176 -88 -475 -97 -593 -17 -1315 108 -1315 228 0 20 -1 20 -31 2
-17 -10 -42 -32 -55 -48 -26 -35 -70 -142 -61 -151 3 -3 198 -73 434 -154 504
-174 513 -177 595 -223 69 -39 118 -92 150 -163 26 -60 23 -192 -5 -221 -10
-10 -32 -40 -49 -67 -36 -56 -104 -109 -167 -131 -56 -19 -119 -19 -252 0 -57
8 -203 26 -324 40 -121 14 -234 33 -252 41 -17 8 -38 14 -47 14 -33 0 -375 72
-529 111 -269 69 -461 140 -526 195 -24 20 -31 22 -40 10 -34 -40 195 -143
494 -221 147 -39 402 -95 546 -120 92 -16 97 -18 102 -45 6 -26 8 -27 54 -23
31 3 184 -19 423 -61 471 -81 434 -53 405 -301 -26 -221 -58 -307 -125 -335
-28 -12 -61 -10 -249 15 -119 15 -234 27 -256 26 -113 -4 -412 43 -629 99
-244 62 -434 131 -653 235 -115 55 -132 61 -136 45 -4 -15 18 -29 112 -73 385
-182 837 -307 1206 -332 154 -11 161 -12 202 -39 69 -46 139 -66 282 -81 352
-38 440 -8 545 181 107 194 160 250 263 280 50 14 100 12 919 -46 970 -68 894
-69 932 12 17 36 24 92 42 362 12 175 20 347 18 383 l-4 65 47 -5 c39 -5 91
-22 268 -89 l24 -9 -25 -27 c-36 -39 -48 -81 -58 -222 -13 -175 -30 -582 -30
-725 0 -199 32 -289 118 -337 72 -41 183 -58 392 -61 173 -2 176 -2 240 27 58
25 74 28 145 25 161 -8 513 -2 615 10 262 30 557 93 755 160 49 17 91 31 92
31 10 0 0 -197 -12 -254 -41 -192 -169 -337 -303 -343 -30 -1 -89 -7 -131 -13
-42 -5 -167 -14 -278 -20 -487 -24 -959 41 -1308 180 -80 32 -105 36 -105 19
0 -25 261 -118 447 -159 294 -64 653 -90 987 -72 119 7 250 17 292 23 42 6 78
8 81 5 12 -11 -40 -115 -90 -181 -58 -77 -141 -139 -234 -176 -75 -30 -249
-33 -361 -6 -98 23 -243 70 -332 107 -40 17 -74 30 -77 30 -6 0 9 -54 35 -120
84 -217 278 -384 558 -481 206 -71 618 -153 989 -196 214 -24 693 -24 860 0
219 33 442 96 545 155 307 176 522 561 522 932 0 116 -22 219 -57 274 -8 12
-95 212 -195 446 -638 1491 -1201 2723 -1460 3195 -107 195 -173 288 -289 408
-144 149 -282 251 -461 340 -231 116 -305 136 -751 206 -316 50 -632 101 -846
136 -31 6 -31 5 -38 -47 -25 -202 -130 -410 -281 -562 -448 -448 -1194 -368
-1536 164 -44 69 -114 217 -106 225 2 2 33 -15 68 -37 186 -119 479 -186 702
-160 52 6 138 25 189 42 108 35 468 210 771 372 l207 111 6 76 c3 42 8 88 10
104 3 15 2 27 0 27 -3 0 -22 -15 -42 -33z m-2890 -2648 c41 -11 58 -35 36 -51
-8 -5 -62 -7 -121 -5 -79 2 -113 8 -133 21 -21 14 -24 20 -15 31 6 8 24 16 38
18 36 7 148 -2 195 -14z m-413 -20 c49 -16 59 -29 53 -67 -4 -24 -13 -36 -32
-44 -38 -14 -218 -4 -263 15 -33 14 -38 20 -38 50 0 58 25 68 155 62 50 -2
106 -9 125 -16z m850 -60 c51 -17 57 -24 52 -63 -4 -31 -9 -37 -41 -46 -65
-18 -192 -8 -263 21 -23 9 -28 18 -28 44 0 34 12 49 45 58 32 9 197 -1 235
-14z m-405 -25 c37 -18 40 -22 40 -59 0 -58 -23 -67 -160 -62 -60 3 -128 11
-150 18 -38 13 -40 16 -43 61 -3 45 -1 48 25 54 15 3 33 8 38 10 6 2 55 2 110
0 72 -2 111 -8 140 -22z m1606 -123 c65 -25 132 -82 123 -104 -13 -35 -92 -52
-239 -52 -154 0 -259 20 -318 59 -45 31 -45 51 0 79 68 43 91 47 238 43 113
-3 151 -7 196 -25z m1453 19 c32 -5 70 -17 84 -26 24 -16 25 -17 7 -30 -40
-29 -259 -11 -272 23 -7 18 -1 24 39 33 47 11 75 11 142 0z m-364 -30 c59 -17
64 -23 54 -66 -8 -32 -15 -39 -44 -47 -43 -11 -181 -3 -235 15 -37 12 -40 16
-43 55 -3 40 -1 43 30 52 38 12 187 7 238 -9z m810 -50 c89 -20 101 -29 98
-69 -4 -47 -32 -61 -128 -61 -82 0 -154 14 -186 35 -31 20 -22 81 15 94 35 13
145 13 201 1z m-358 -38 c46 -21 47 -21 41 -59 -3 -21 -10 -42 -15 -48 -5 -6
-63 -10 -131 -10 -95 0 -133 4 -170 19 -48 18 -48 18 -45 60 3 37 7 42 38 54
54 19 224 10 282 -16z m1858 -1104 c71 -153 80 -318 24 -438 -35 -73 -116
-169 -142 -168 -9 1 -59 -13 -109 -30 -213 -71 -464 -126 -728 -159 -126 -16
-627 -25 -640 -11 -3 3 23 34 58 69 73 75 146 210 242 450 l59 147 120 6 c374
20 652 51 829 91 108 24 217 66 238 91 6 8 13 14 16 14 2 0 17 -28 33 -62z"/>
<path d="M15905 9603 c-76 -46 -200 -170 -244 -246 -123 -210 -146 -516 -57
-772 38 -111 78 -195 91 -195 8 0 39 -37 71 -82 110 -159 184 -231 325 -316
226 -138 503 -164 704 -67 35 17 41 22 20 17 -80 -17 -283 -1 -350 28 -11 5
-54 23 -96 40 -116 47 -223 122 -339 239 -149 150 -231 297 -293 521 -31 115
-31 363 1 480 32 115 99 241 173 323 33 37 59 67 57 66 -2 0 -30 -17 -63 -36z"/>
<path d="M16333 9576 c-145 -33 -295 -151 -362 -285 -102 -202 -95 -455 19
-686 224 -453 749 -606 1050 -305 120 121 174 264 173 460 -2 239 -93 443
-276 616 -175 167 -408 244 -604 200z m252 -51 c284 -74 511 -326 571 -633 62
-324 -95 -615 -371 -687 -335 -87 -723 197 -822 602 -26 109 -22 269 11 369
58 179 183 304 347 348 72 19 191 20 264 1z"/>
<path d="M16328 9451 c-118 -38 -216 -124 -269 -236 -16 -33 -29 -64 -29 -70
0 -5 -14 -18 -30 -27 -22 -13 -30 -24 -30 -45 0 -59 57 -96 100 -66 23 16 27
60 6 88 -12 16 -12 25 0 57 36 104 125 201 224 246 75 34 211 42 295 17 232
-67 417 -274 462 -516 20 -109 20 -109 38 -109 36 0 2 165 -60 296 -79 164
-234 304 -399 359 -93 31 -221 34 -308 6z m-282 -407 c-6 -16 -8 -16 -23 -2
-9 10 -13 23 -9 34 6 16 8 16 23 2 9 -10 13 -23 9 -34z"/>
<path d="M16006 8883 c22 -184 125 -369 269 -486 187 -151 427 -180 608 -74
80 47 168 161 201 260 3 9 16 21 29 26 32 13 43 56 22 88 -21 31 -54 43 -83
30 -31 -14 -37 -48 -17 -91 17 -34 16 -36 -15 -100 -41 -83 -115 -157 -197
-198 -51 -25 -81 -32 -145 -36 -165 -10 -296 44 -429 177 -73 73 -94 102 -132
181 -43 90 -58 139 -72 238 -5 33 -11 42 -27 42 -18 0 -19 -4 -12 -57z m1097
-207 c9 -22 -18 -40 -33 -22 -6 9 -9 20 -5 26 9 15 32 12 38 -4z"/>
<path d="M8540 8883 c-13 -230 2 -308 71 -387 23 -25 44 -46 48 -46 4 0 31 52
61 115 29 63 57 115 61 115 23 0 2 30 -54 75 -34 28 -86 82 -114 120 -29 39
-57 71 -61 73 -5 1 -10 -28 -12 -65z"/>
<path d="M11775 8659 c-33 -33 -93 -81 -132 -106 -67 -43 -87 -66 -65 -75 5
-1 24 -52 42 -113 18 -60 36 -113 39 -118 13 -13 75 37 108 87 44 65 63 133
68 245 3 52 7 96 10 99 8 8 6 42 -3 42 -4 0 -34 -27 -67 -61z"/>
<path d="M15910 8499 c0 -20 21 -49 35 -49 18 0 19 14 5 41 -11 20 -40 26 -40
8z"/>
<path d="M15975 8410 c-9 -15 35 -72 114 -149 207 -201 482 -295 721 -247 97
20 200 62 200 82 0 19 -24 17 -68 -5 -151 -77 -375 -71 -567 14 -116 51 -278
179 -350 278 -28 38 -39 44 -50 27z"/>
<path d="M6956 8011 c-10 -16 18 -28 273 -115 194 -66 256 -84 262 -74 5 7 5
16 1 19 -4 4 -92 35 -197 69 -104 35 -199 68 -210 74 -18 9 -100 34 -117 36
-4 0 -9 -4 -12 -9z"/>
<path d="M16885 7960 c-19 -8 -19 -9 2 -9 12 -1 25 4 28 9 7 12 -2 12 -30 0z"/>
<path d="M13210 7569 c-52 -9 -437 -85 -461 -90 -10 -3 -14 -10 -10 -20 5 -13
39 -9 276 36 220 42 271 54 273 68 4 19 -5 19 -78 6z"/>
</g>
</svg>
