<svg width="48" height="48" viewBox="0 0 48 48" fill="none" xmlns="http://www.w3.org/2000/svg">
<g clip-path="url(#clip0)">
<path d="M39.9219 34.743C39.9219 43.6289 32.725 43.6289 23.7656 43.6289C14.8063 43.6289 7.60938 43.6289 7.60938 34.743C7.60938 25.857 14.8797 11.3164 23.7656 11.3164C32.6516 11.3164 39.9219 25.7836 39.9219 34.743Z" fill="#DBB471"/>
<path opacity="0.5" d="M39.9211 34.743C39.9211 31.732 39.1133 28.0602 37.6445 24.5352C37.9383 26.8117 37.3508 30.8508 30.3742 32.393C20.4602 34.5227 25.6008 37.3133 21.7086 37.6805C18.4039 37.9742 9.59141 36.6523 7.82891 31.6586C7.68203 32.7602 7.53516 33.7883 7.53516 34.8164C7.60859 43.6289 14.8789 43.6289 23.7648 43.6289C32.6508 43.6289 39.9211 43.6289 39.9211 34.743Z" fill="#89664C"/>
<path d="M25.2359 40.6914H23.5469V43.6289L30.3766 47.3008L45.7984 42.5273V39.957L40.1437 36.6523L25.2359 40.6914Z" fill="#699635"/>
<path d="M23.7656 39.0023C23.7656 39.0023 25.5281 41.8664 30.5219 44.3633C30.5219 44.3633 38.3063 43.9961 45.7969 39.0023C45.7969 39.0023 41.4641 36.8727 40.2156 34.082C40.2156 34.082 37.2781 38.1945 23.7656 39.0023Z" fill="#83BF4F"/>
<path d="M20.4617 40.6184L22.0773 40.5449L22.2977 43.2621L15.9086 47.3012L0.560156 43.9965L0.339844 41.573L5.55391 37.9746L20.4617 40.6184Z" fill="#699635"/>
<path d="M21.7094 38.9289C21.7094 38.9289 20.1672 41.793 15.5406 44.5102C15.5406 44.5102 7.97656 44.7305 0.265625 40.6914C0.265625 40.6914 4.37813 38.3414 5.33281 35.5508C5.33281 35.5508 8.56406 39.2227 21.7094 38.9289Z" fill="#83BF4F"/>
<path d="M18.0359 39.7371C18.0359 39.7371 17.8156 40.3245 18.8438 40.398L16.1266 42.6746C16.1266 42.6746 14.5109 42.5277 14.1438 43.6292C14.1438 43.6292 7.53438 42.8949 3.275 40.9855C3.275 40.9855 4.15625 40.3246 3.05469 39.8839C3.05469 39.8839 4.30313 39.0027 4.59688 38.1949C4.59688 38.1949 5.77188 38.3417 6.13906 37.4605C6.28594 37.387 10.6922 40.0308 18.0359 39.7371V39.7371Z" stroke="#699635" stroke-miterlimit="10"/>
<path d="M6.72734 40.7648C7.49795 40.7648 8.12265 40.3374 8.12265 39.8102C8.12265 39.2829 7.49795 38.8555 6.72734 38.8555C5.95673 38.8555 5.33203 39.2829 5.33203 39.8102C5.33203 40.3374 5.95673 40.7648 6.72734 40.7648Z" fill="#699635"/>
<path d="M14.2172 38.6336C14.2172 38.6336 12.5281 40.8367 8.85625 43.8477L9.07656 45.8305L6.50625 45.243L6.35938 43.1133C6.35938 43.1133 10.1047 39.6617 10.9125 37.9727C10.8391 37.9727 12.1609 38.4133 14.2172 38.6336Z" fill="#F9F3D9"/>
<path d="M31.1797 38.1203C31.1797 38.1203 31.8406 39.8828 36.8344 43.1141V45.2437L39.6984 44.3625V42.1594C39.6984 42.1594 36.2469 39.7359 34.1906 37.3125L31.1797 38.1203Z" fill="#F9F3D9"/>
<path d="M26.9969 35.7719L25.3813 35.6984L25.2344 38.7094L31.7703 42.8953L47.1187 38.7094L47.1922 36.0656L41.8312 32.3203L26.9969 35.7719Z" fill="#699635"/>
<path d="M25.6758 33.9352C25.6758 33.9352 27.2914 37.0195 32.0648 39.8102C32.0648 39.8102 39.7023 39.8102 47.2664 35.1102C47.2664 35.1102 43.0805 32.6867 42.0523 29.6758C42.0523 29.6758 38.8945 33.7883 25.6758 33.9352Z" fill="#83BF4F"/>
<path d="M28.9797 34.7438C28.9797 34.7438 29.3469 35.3313 28.1719 35.5516L31.2563 37.975C31.2563 37.975 33.0188 37.5344 33.6063 38.5625C33.6063 38.5625 40.95 37.2406 44.3281 35.4781C44.3281 35.4781 43.2266 34.9641 44.3281 34.3031C44.3281 34.3031 43.0062 33.2016 42.4922 32.4672C42.4922 32.4672 41.2438 32.8344 40.5828 31.9531C40.5828 32.0266 37.9391 34.3766 28.9797 34.7438V34.7438Z" stroke="#699635" stroke-miterlimit="10"/>
<path d="M34.6356 36.5781C34.3419 36.9453 33.3872 37.0922 32.5794 36.8719C31.7716 36.6516 31.4044 36.1375 31.6981 35.7703C31.9919 35.4031 32.9466 35.2562 33.7544 35.4766C34.5622 35.6969 34.9294 36.1375 34.6356 36.5781Z" fill="#699635"/>
<path d="M33.1641 33.3469C33.1641 33.3469 34.9266 35.6969 38.6719 38.8547L38.5984 41.0578L41.1688 40.3234L41.2422 37.9734C41.2422 37.9734 37.4234 34.3016 36.4688 32.5391C36.5422 32.5391 35.2938 33.0531 33.1641 33.3469Z" fill="#F9F3D9"/>
<path d="M34.0469 1.76953C34.0469 6.24922 28.2453 13.5195 23.7656 13.5195C19.2859 13.5195 13.4844 6.98359 13.4844 2.50391C13.4844 -1.97578 14.1453 2.50391 18.625 2.50391C19.2859 2.50391 22.3703 0.300781 23.7656 0.300781C24.7203 0.300781 27.4375 2.50391 28.9062 2.50391C32.7984 2.50391 34.0469 -1.60859 34.0469 1.76953Z" fill="#DBB471"/>
<path d="M22.443 10.0689C22.0024 10.3626 19.8727 10.1423 19.2117 10.6564C18.3305 11.3173 19.5789 12.8595 18.6977 13.8142C16.9352 15.5767 15.5399 17.5595 15.9805 18.6611C16.7149 20.5705 18.1102 15.1361 19.3586 17.1923C20.6071 19.2486 20.3867 15.797 22.2961 17.5595C24.2055 19.322 22.5899 14.4017 24.4258 16.5314C26.2617 18.6611 26.3352 21.0845 27.6571 21.0845C29.1992 21.0845 26.0414 15.283 28.0977 16.6783C30.1539 18.0736 32.4305 17.5595 30.3742 15.4298C29.7133 14.7689 28.8321 13.5939 27.8039 12.5658C27.4367 12.1986 27.7305 10.2892 27.3633 9.99546C26.9227 9.62827 25.8211 10.8033 25.3805 10.583C24.4992 10.1423 24.793 10.9501 23.4711 11.1705C22.5899 11.4642 23.3242 9.4814 22.443 10.0689Z" fill="#89664C"/>
<path d="M13.9975 14.4014C16.8615 11.6842 22.0756 13.2264 25.16 14.5482C28.1709 15.8701 30.0068 11.6842 28.0975 9.5545C26.9959 8.30606 25.2334 9.77481 24.5725 10.6561C23.8381 11.5373 23.2506 12.492 22.4428 13.3732C21.2678 14.6951 18.4037 13.5936 19.285 11.7576C20.2396 9.84825 24.2787 12.0514 25.6006 12.4186C28.1709 13.1529 30.8881 13.4467 33.4584 12.492C34.3396 12.1982 33.9725 10.7295 33.0912 11.0967C30.2271 12.1248 27.3631 11.4639 24.6459 10.5826C23.2506 10.142 21.0475 8.967 19.5787 9.62794C15.3928 11.6107 19.285 17.2654 22.81 15.0623C23.6178 14.5482 24.1318 13.7404 24.7193 13.0061C25.0865 12.5654 26.9225 9.77481 27.3631 11.1701C27.5834 11.9045 27.3631 13.2264 26.5553 13.4467C26.0412 13.667 25.0131 12.9326 24.499 12.7857C23.5443 12.4186 22.5896 12.1248 21.5615 11.9045C18.8443 11.317 15.1725 11.4639 13.0428 13.4467C12.3084 14.0342 13.3365 15.0623 13.9975 14.4014Z" fill="#E8E8E8"/>
<path d="M33.1656 0.667969C32.4312 1.25547 31.1094 2.50391 28.9062 2.50391C27.4375 2.50391 24.7203 0.300781 23.7656 0.300781C22.3703 0.300781 19.2859 2.50391 18.625 2.50391C16.2016 2.50391 14.8797 1.25547 14.2188 0.741406C14.2188 0.741406 15.0266 4.04609 17.5234 5.73516C19.3594 6.91016 19.1391 5.51484 20.0937 4.19297C21.0484 2.87109 21.7094 2.21016 23.3984 5.51484C24.2797 7.35078 25.9687 0.521094 27.2906 2.72422C29.7141 6.76328 30.5953 4.56016 33.1656 0.667969Z" fill="#89664C"/>
<path d="M38.7492 38.7816L38.6758 40.9848L41.2461 40.2504L41.3195 37.9004C41.3195 37.9738 39.7773 38.5613 38.7492 38.7816Z" fill="#DBB471"/>
<path d="M36.8398 43.1873V45.317L39.7039 44.4357V42.2326C39.6305 42.1592 38.8961 42.5998 36.8398 43.1873Z" fill="#DBB471"/>
<path d="M8.85994 43.7762L9.08026 45.8324L6.50994 45.2449L6.36307 43.1152C6.28963 43.1152 7.31776 43.4824 8.85994 43.7762Z" fill="#DBB471"/>
</g>
<defs>
<clipPath id="clip0">
<rect width="47" height="47" fill="white" transform="translate(0.265625 0.300781)"/>
</clipPath>
</defs>
</svg>
